<svg xmlns="http://www.w3.org/2000/svg" xmlns:xlink="http://www.w3.org/1999/xlink" width="250" zoomAndPan="magnify" viewBox="0 0 187.5 30.000001" height="40" preserveAspectRatio="xMidYMid meet" version="1.0"><defs><g/></defs><g fill="#ffffff" fill-opacity="1"><g transform="translate(13.623344, 18.544673)"><g><path d="M 5.34375 0.203125 C 4.34375 0.203125 3.476562 -0.015625 2.75 -0.453125 C 2.019531 -0.890625 1.457031 -1.507812 1.0625 -2.3125 C 0.675781 -3.113281 0.484375 -4.0625 0.484375 -5.15625 C 0.484375 -6.332031 0.710938 -7.363281 1.171875 -8.25 C 1.640625 -9.144531 2.296875 -9.84375 3.140625 -10.34375 C 3.984375 -10.84375 4.953125 -11.09375 6.046875 -11.09375 C 7.066406 -11.09375 7.945312 -10.878906 8.6875 -10.453125 C 9.425781 -10.023438 9.988281 -9.410156 10.375 -8.609375 C 10.769531 -7.816406 10.96875 -6.875 10.96875 -5.78125 C 10.96875 -4.601562 10.734375 -3.554688 10.265625 -2.640625 C 9.796875 -1.734375 9.132812 -1.03125 8.28125 -0.53125 C 7.425781 -0.0390625 6.445312 0.203125 5.34375 0.203125 Z M 5.78125 -1.234375 C 6.59375 -1.234375 7.226562 -1.550781 7.6875 -2.1875 C 8.144531 -2.832031 8.375 -3.738281 8.375 -4.90625 C 8.375 -6.382812 8.128906 -7.515625 7.640625 -8.296875 C 7.160156 -9.085938 6.472656 -9.484375 5.578125 -9.484375 C 4.773438 -9.484375 4.148438 -9.160156 3.703125 -8.515625 C 3.253906 -7.878906 3.03125 -6.976562 3.03125 -5.8125 C 3.03125 -4.332031 3.269531 -3.195312 3.75 -2.40625 C 4.226562 -1.625 4.90625 -1.234375 5.78125 -1.234375 Z M 5.78125 -1.234375 "/></g></g></g><g fill="#ffffff" fill-opacity="1"><g transform="translate(25.066699, 18.544673)"><g><path d="M 3.984375 0.171875 C 3.585938 0.171875 3.191406 0.148438 2.796875 0.109375 C 2.398438 0.0664062 2.070312 0.03125 1.8125 0 C 1.550781 -0.0390625 1.390625 -0.0664062 1.328125 -0.078125 L 1.15625 -0.265625 L 1.15625 -10.140625 C 1.15625 -10.503906 1.101562 -10.753906 1 -10.890625 C 0.894531 -11.035156 0.707031 -11.109375 0.4375 -11.109375 C 0.351562 -11.109375 0.273438 -11.101562 0.203125 -11.09375 C 0.140625 -11.082031 0.0859375 -11.078125 0.046875 -11.078125 L -0.015625 -11.15625 L 0.078125 -12.03125 C 0.722656 -12.125 1.398438 -12.226562 2.109375 -12.34375 C 2.828125 -12.46875 3.296875 -12.546875 3.515625 -12.578125 L 3.625 -12.25 C 3.425781 -12.019531 3.28125 -10.234375 3.1875 -6.890625 C 4.226562 -7.617188 4.84375 -7.984375 5.03125 -7.984375 C 6.019531 -7.984375 6.800781 -7.644531 7.375 -6.96875 C 7.957031 -6.300781 8.25 -5.390625 8.25 -4.234375 C 8.25 -3.390625 8.066406 -2.632812 7.703125 -1.96875 C 7.335938 -1.300781 6.832031 -0.773438 6.1875 -0.390625 C 5.539062 -0.015625 4.804688 0.171875 3.984375 0.171875 Z M 4.375 -1.203125 C 4.914062 -1.203125 5.335938 -1.410156 5.640625 -1.828125 C 5.953125 -2.242188 6.109375 -2.832031 6.109375 -3.59375 C 6.109375 -4.4375 5.953125 -5.113281 5.640625 -5.625 C 5.328125 -6.132812 4.921875 -6.390625 4.421875 -6.390625 C 4.234375 -6.390625 4.019531 -6.332031 3.78125 -6.21875 C 3.539062 -6.101562 3.332031 -5.96875 3.15625 -5.8125 L 3.109375 -1.46875 C 3.222656 -1.40625 3.40625 -1.34375 3.65625 -1.28125 C 3.90625 -1.226562 4.144531 -1.203125 4.375 -1.203125 Z M 4.375 -1.203125 "/></g></g></g><g fill="#ffffff" fill-opacity="1"><g transform="translate(33.763644, 18.544673)"><g><path d="M 6.46875 0.203125 C 5.976562 0.203125 5.585938 0.09375 5.296875 -0.125 C 5.003906 -0.34375 4.832031 -0.671875 4.78125 -1.109375 L 4.640625 -1.15625 C 4.285156 -0.78125 3.9375 -0.46875 3.59375 -0.21875 C 3.25 0.0195312 2.976562 0.140625 2.78125 0.140625 C 2.113281 0.140625 1.554688 -0.09375 1.109375 -0.5625 C 0.671875 -1.03125 0.453125 -1.617188 0.453125 -2.328125 C 0.453125 -2.671875 0.539062 -2.96875 0.71875 -3.21875 C 0.90625 -3.476562 1.144531 -3.648438 1.4375 -3.734375 L 4.71875 -4.5 L 4.734375 -4.90625 C 4.734375 -5.382812 4.601562 -5.757812 4.34375 -6.03125 C 4.082031 -6.300781 3.722656 -6.4375 3.265625 -6.4375 C 2.960938 -6.4375 2.632812 -6.359375 2.28125 -6.203125 C 1.925781 -6.054688 1.59375 -5.867188 1.28125 -5.640625 L 1.140625 -5.71875 L 0.84375 -6.734375 C 1.414062 -7.046875 2.007812 -7.335938 2.625 -7.609375 C 3.25 -7.878906 3.691406 -8.015625 3.953125 -8.015625 C 4.890625 -8.015625 5.59375 -7.800781 6.0625 -7.375 C 6.53125 -6.957031 6.765625 -6.40625 6.765625 -5.71875 C 6.765625 -5.46875 6.710938 -4.957031 6.609375 -4.1875 C 6.484375 -3.09375 6.421875 -2.4375 6.421875 -2.21875 C 6.421875 -2.007812 6.476562 -1.84375 6.59375 -1.71875 C 6.707031 -1.59375 6.851562 -1.53125 7.03125 -1.53125 C 7.164062 -1.53125 7.3125 -1.5625 7.46875 -1.625 C 7.625 -1.6875 7.75 -1.75 7.84375 -1.8125 L 8.109375 -1.453125 C 7.898438 -1.097656 7.644531 -0.753906 7.34375 -0.421875 C 7.050781 -0.0859375 6.757812 0.117188 6.46875 0.203125 Z M 3.40625 -1.46875 C 3.570312 -1.46875 3.769531 -1.515625 4 -1.609375 C 4.238281 -1.703125 4.445312 -1.820312 4.625 -1.96875 L 4.671875 -3.578125 L 2.859375 -3.0625 C 2.585938 -3 2.453125 -2.816406 2.453125 -2.515625 C 2.453125 -2.210938 2.539062 -1.960938 2.71875 -1.765625 C 2.894531 -1.566406 3.125 -1.46875 3.40625 -1.46875 Z M 3.40625 -1.46875 "/></g></g></g><g fill="#ffffff" fill-opacity="1"><g transform="translate(41.951998, 18.544673)"><g><path d="M 0.59375 -0.875 C 0.914062 -0.9375 1.15625 -1.046875 1.3125 -1.203125 C 1.46875 -1.367188 1.546875 -1.613281 1.546875 -1.9375 L 1.546875 -5.59375 C 1.546875 -5.957031 1.492188 -6.207031 1.390625 -6.34375 C 1.285156 -6.476562 1.097656 -6.546875 0.828125 -6.546875 C 0.753906 -6.546875 0.675781 -6.539062 0.59375 -6.53125 C 0.507812 -6.519531 0.457031 -6.507812 0.4375 -6.5 L 0.546875 -7.453125 C 1.171875 -7.546875 1.8125 -7.648438 2.46875 -7.765625 C 3.125 -7.890625 3.550781 -7.972656 3.75 -8.015625 L 3.90625 -7.75 C 3.78125 -7.5 3.679688 -6.816406 3.609375 -5.703125 C 3.535156 -4.585938 3.5 -3.28125 3.5 -1.78125 C 3.5 -1.507812 3.535156 -1.316406 3.609375 -1.203125 C 3.691406 -1.085938 3.828125 -1.03125 4.015625 -1.03125 C 4.117188 -1.03125 4.21875 -1.035156 4.3125 -1.046875 C 4.40625 -1.054688 4.472656 -1.0625 4.515625 -1.0625 L 4.5625 -0.984375 L 4.390625 0.046875 C 4.265625 0.0351562 4.019531 0.0234375 3.65625 0.015625 C 3.289062 0.00390625 2.914062 0 2.53125 0 C 2.175781 0 1.773438 0.0234375 1.328125 0.078125 C 0.878906 0.128906 0.585938 0.164062 0.453125 0.1875 Z M 2.375 -9.484375 C 2 -9.484375 1.707031 -9.585938 1.5 -9.796875 C 1.300781 -10.015625 1.203125 -10.300781 1.203125 -10.65625 C 1.203125 -11.070312 1.320312 -11.398438 1.5625 -11.640625 C 1.800781 -11.890625 2.128906 -12.015625 2.546875 -12.015625 C 2.898438 -12.015625 3.175781 -11.90625 3.375 -11.6875 C 3.582031 -11.46875 3.6875 -11.175781 3.6875 -10.8125 C 3.6875 -10.414062 3.566406 -10.09375 3.328125 -9.84375 C 3.085938 -9.601562 2.769531 -9.484375 2.375 -9.484375 Z M 2.375 -9.484375 "/></g></g></g><g fill="#ffffff" fill-opacity="1"><g transform="translate(46.902316, 18.544673)"><g><path d="M 7.4375 0.203125 C 6.4375 0.203125 5.875 -0.203125 5.75 -1.015625 L 5.640625 -1.046875 C 4.546875 -0.253906 3.882812 0.140625 3.65625 0.140625 C 2.675781 0.140625 1.894531 -0.191406 1.3125 -0.859375 C 0.726562 -1.523438 0.4375 -2.429688 0.4375 -3.578125 C 0.4375 -4.410156 0.617188 -5.160156 0.984375 -5.828125 C 1.359375 -6.503906 1.867188 -7.03125 2.515625 -7.40625 C 3.171875 -7.789062 3.90625 -7.984375 4.71875 -7.984375 C 4.988281 -7.984375 5.28125 -7.96875 5.59375 -7.9375 L 5.59375 -10.125 C 5.59375 -10.46875 5.535156 -10.710938 5.421875 -10.859375 C 5.316406 -11.003906 5.132812 -11.078125 4.875 -11.078125 C 4.789062 -11.078125 4.707031 -11.066406 4.625 -11.046875 C 4.550781 -11.035156 4.5 -11.023438 4.46875 -11.015625 L 4.578125 -12.015625 C 5.242188 -12.097656 5.914062 -12.203125 6.59375 -12.328125 C 7.269531 -12.453125 7.710938 -12.535156 7.921875 -12.578125 L 8.0625 -12.296875 C 7.914062 -12.078125 7.789062 -10.972656 7.6875 -8.984375 C 7.59375 -6.992188 7.546875 -4.738281 7.546875 -2.21875 C 7.546875 -2.007812 7.59375 -1.84375 7.6875 -1.71875 C 7.78125 -1.59375 7.914062 -1.53125 8.09375 -1.53125 C 8.207031 -1.53125 8.320312 -1.550781 8.4375 -1.59375 C 8.550781 -1.632812 8.644531 -1.675781 8.71875 -1.71875 C 8.789062 -1.769531 8.835938 -1.800781 8.859375 -1.8125 L 9.140625 -1.453125 C 9.109375 -1.390625 9.007812 -1.242188 8.84375 -1.015625 C 8.6875 -0.785156 8.476562 -0.546875 8.21875 -0.296875 C 7.96875 -0.0546875 7.707031 0.109375 7.4375 0.203125 Z M 4.296875 -1.421875 C 4.472656 -1.421875 4.660156 -1.460938 4.859375 -1.546875 C 5.054688 -1.628906 5.21875 -1.71875 5.34375 -1.8125 C 5.476562 -1.90625 5.5625 -1.96875 5.59375 -2 L 5.59375 -6.296875 C 5.570312 -6.304688 5.503906 -6.332031 5.390625 -6.375 C 5.273438 -6.414062 5.125 -6.457031 4.9375 -6.5 C 4.757812 -6.550781 4.5625 -6.578125 4.34375 -6.578125 C 3.789062 -6.578125 3.359375 -6.367188 3.046875 -5.953125 C 2.742188 -5.546875 2.59375 -4.960938 2.59375 -4.203125 C 2.59375 -3.367188 2.75 -2.695312 3.0625 -2.1875 C 3.375 -1.675781 3.785156 -1.421875 4.296875 -1.421875 Z M 4.296875 -1.421875 "/></g></g></g><g fill="#ffffff" fill-opacity="1"><g transform="translate(56.006147, 18.544673)"><g><path d="M 1.265625 -5.71875 C 1.265625 -6.007812 1.21875 -6.21875 1.125 -6.34375 C 1.039062 -6.476562 0.894531 -6.546875 0.6875 -6.546875 C 0.59375 -6.546875 0.503906 -6.539062 0.421875 -6.53125 C 0.347656 -6.519531 0.296875 -6.507812 0.265625 -6.5 L 0.375 -7.46875 C 0.957031 -7.550781 1.566406 -7.648438 2.203125 -7.765625 C 2.835938 -7.890625 3.25 -7.972656 3.4375 -8.015625 L 3.59375 -7.75 C 3.46875 -7.46875 3.359375 -6.847656 3.265625 -5.890625 C 3.179688 -4.929688 3.140625 -3.945312 3.140625 -2.9375 C 3.140625 -2.46875 3.222656 -2.117188 3.390625 -1.890625 C 3.566406 -1.671875 3.835938 -1.5625 4.203125 -1.5625 C 4.429688 -1.5625 4.65625 -1.613281 4.875 -1.71875 C 5.09375 -1.820312 5.359375 -1.984375 5.671875 -2.203125 L 5.671875 -5.703125 C 5.671875 -6.015625 5.625 -6.226562 5.53125 -6.34375 C 5.4375 -6.457031 5.242188 -6.519531 4.953125 -6.53125 L 4.640625 -6.515625 L 4.78125 -7.46875 C 5.394531 -7.550781 6.023438 -7.648438 6.671875 -7.765625 C 7.316406 -7.878906 7.738281 -7.953125 7.9375 -7.984375 L 8.09375 -7.71875 C 7.96875 -7.457031 7.859375 -6.796875 7.765625 -5.734375 C 7.671875 -4.671875 7.625 -3.5 7.625 -2.21875 C 7.625 -2.007812 7.679688 -1.84375 7.796875 -1.71875 C 7.910156 -1.59375 8.054688 -1.53125 8.234375 -1.53125 C 8.359375 -1.53125 8.476562 -1.550781 8.59375 -1.59375 C 8.71875 -1.632812 8.816406 -1.675781 8.890625 -1.71875 C 8.972656 -1.769531 9.023438 -1.800781 9.046875 -1.8125 L 9.3125 -1.46875 C 9.257812 -1.394531 9.144531 -1.234375 8.96875 -0.984375 C 8.789062 -0.742188 8.570312 -0.5 8.3125 -0.25 C 8.050781 0 7.800781 0.148438 7.5625 0.203125 C 6.53125 0.203125 5.953125 -0.234375 5.828125 -1.109375 L 5.703125 -1.171875 C 5.265625 -0.773438 4.867188 -0.445312 4.515625 -0.1875 C 4.160156 0.0625 3.921875 0.1875 3.796875 0.1875 C 2.941406 0.1875 2.285156 0.00390625 1.828125 -0.359375 C 1.378906 -0.722656 1.15625 -1.25 1.15625 -1.9375 Z M 1.265625 -5.71875 "/></g></g></g><g fill="#ffffff" fill-opacity="1"><g transform="translate(65.262558, 18.544673)"><g><path d="M 0.390625 -0.875 C 0.648438 -0.9375 0.835938 -1.019531 0.953125 -1.125 C 1.078125 -1.226562 1.15625 -1.363281 1.1875 -1.53125 C 1.21875 -1.695312 1.234375 -1.941406 1.234375 -2.265625 L 1.234375 -10.140625 C 1.234375 -10.441406 1.207031 -10.65625 1.15625 -10.78125 C 1.101562 -10.914062 1.003906 -11.003906 0.859375 -11.046875 C 0.710938 -11.085938 0.472656 -11.097656 0.140625 -11.078125 L 0.0625 -11.140625 L 0.171875 -12.03125 C 1.535156 -12.21875 2.675781 -12.398438 3.59375 -12.578125 L 3.71875 -12.25 C 3.550781 -11.882812 3.421875 -10.734375 3.328125 -8.796875 C 3.234375 -6.867188 3.1875 -4.53125 3.1875 -1.78125 C 3.1875 -1.5 3.222656 -1.300781 3.296875 -1.1875 C 3.378906 -1.070312 3.515625 -1.015625 3.703125 -1.015625 L 4.25 -1.046875 L 4.3125 -0.953125 L 4.125 0.046875 L 3.5625 0.03125 C 2.925781 0.0078125 2.472656 0 2.203125 0 C 1.773438 0 1.128906 0.0507812 0.265625 0.15625 Z M 0.390625 -0.875 "/></g></g></g><g fill="#ffffff" fill-opacity="1"><g transform="translate(69.721229, 18.544673)"><g><path d="M 0.390625 -0.875 C 0.648438 -0.9375 0.835938 -1.019531 0.953125 -1.125 C 1.078125 -1.226562 1.15625 -1.363281 1.1875 -1.53125 C 1.21875 -1.695312 1.234375 -1.941406 1.234375 -2.265625 L 1.234375 -10.140625 C 1.234375 -10.441406 1.207031 -10.65625 1.15625 -10.78125 C 1.101562 -10.914062 1.003906 -11.003906 0.859375 -11.046875 C 0.710938 -11.085938 0.472656 -11.097656 0.140625 -11.078125 L 0.0625 -11.140625 L 0.171875 -12.03125 C 1.535156 -12.21875 2.675781 -12.398438 3.59375 -12.578125 L 3.71875 -12.25 C 3.550781 -11.882812 3.421875 -10.734375 3.328125 -8.796875 C 3.234375 -6.867188 3.1875 -4.53125 3.1875 -1.78125 C 3.1875 -1.5 3.222656 -1.300781 3.296875 -1.1875 C 3.378906 -1.070312 3.515625 -1.015625 3.703125 -1.015625 L 4.25 -1.046875 L 4.3125 -0.953125 L 4.125 0.046875 L 3.5625 0.03125 C 2.925781 0.0078125 2.472656 0 2.203125 0 C 1.773438 0 1.128906 0.0507812 0.265625 0.15625 Z M 0.390625 -0.875 "/></g></g></g><g fill="#ffffff" fill-opacity="1"><g transform="translate(74.1799, 18.544673)"><g><path d="M 6.46875 0.203125 C 5.976562 0.203125 5.585938 0.09375 5.296875 -0.125 C 5.003906 -0.34375 4.832031 -0.671875 4.78125 -1.109375 L 4.640625 -1.15625 C 4.285156 -0.78125 3.9375 -0.46875 3.59375 -0.21875 C 3.25 0.0195312 2.976562 0.140625 2.78125 0.140625 C 2.113281 0.140625 1.554688 -0.09375 1.109375 -0.5625 C 0.671875 -1.03125 0.453125 -1.617188 0.453125 -2.328125 C 0.453125 -2.671875 0.539062 -2.96875 0.71875 -3.21875 C 0.90625 -3.476562 1.144531 -3.648438 1.4375 -3.734375 L 4.71875 -4.5 L 4.734375 -4.90625 C 4.734375 -5.382812 4.601562 -5.757812 4.34375 -6.03125 C 4.082031 -6.300781 3.722656 -6.4375 3.265625 -6.4375 C 2.960938 -6.4375 2.632812 -6.359375 2.28125 -6.203125 C 1.925781 -6.054688 1.59375 -5.867188 1.28125 -5.640625 L 1.140625 -5.71875 L 0.84375 -6.734375 C 1.414062 -7.046875 2.007812 -7.335938 2.625 -7.609375 C 3.25 -7.878906 3.691406 -8.015625 3.953125 -8.015625 C 4.890625 -8.015625 5.59375 -7.800781 6.0625 -7.375 C 6.53125 -6.957031 6.765625 -6.40625 6.765625 -5.71875 C 6.765625 -5.46875 6.710938 -4.957031 6.609375 -4.1875 C 6.484375 -3.09375 6.421875 -2.4375 6.421875 -2.21875 C 6.421875 -2.007812 6.476562 -1.84375 6.59375 -1.71875 C 6.707031 -1.59375 6.851562 -1.53125 7.03125 -1.53125 C 7.164062 -1.53125 7.3125 -1.5625 7.46875 -1.625 C 7.625 -1.6875 7.75 -1.75 7.84375 -1.8125 L 8.109375 -1.453125 C 7.898438 -1.097656 7.644531 -0.753906 7.34375 -0.421875 C 7.050781 -0.0859375 6.757812 0.117188 6.46875 0.203125 Z M 3.40625 -1.46875 C 3.570312 -1.46875 3.769531 -1.515625 4 -1.609375 C 4.238281 -1.703125 4.445312 -1.820312 4.625 -1.96875 L 4.671875 -3.578125 L 2.859375 -3.0625 C 2.585938 -3 2.453125 -2.816406 2.453125 -2.515625 C 2.453125 -2.210938 2.539062 -1.960938 2.71875 -1.765625 C 2.894531 -1.566406 3.125 -1.46875 3.40625 -1.46875 Z M 3.40625 -1.46875 "/></g></g></g><g fill="#ffffff" fill-opacity="1"><g transform="translate(82.368254, 18.544673)"><g><path d="M 0.4375 -0.984375 C 0.726562 -1.015625 0.929688 -1.09375 1.046875 -1.21875 C 1.171875 -1.351562 1.234375 -1.582031 1.234375 -1.90625 L 1.234375 -10.140625 C 1.234375 -10.503906 1.179688 -10.753906 1.078125 -10.890625 C 0.984375 -11.023438 0.800781 -11.09375 0.53125 -11.09375 L 0.140625 -11.09375 L 0.0625 -11.15625 L 0.171875 -12.03125 C 1.390625 -12.207031 2.53125 -12.390625 3.59375 -12.578125 L 3.71875 -12.25 C 3.601562 -12.132812 3.503906 -11.570312 3.421875 -10.5625 C 3.347656 -9.5625 3.285156 -8.226562 3.234375 -6.5625 C 3.597656 -6.914062 4.015625 -7.242188 4.484375 -7.546875 C 4.953125 -7.859375 5.296875 -8.015625 5.515625 -8.015625 C 6.328125 -8.015625 6.953125 -7.828125 7.390625 -7.453125 C 7.828125 -7.078125 8.046875 -6.535156 8.046875 -5.828125 C 8.046875 -5.554688 8 -4.960938 7.90625 -4.046875 C 7.789062 -2.898438 7.734375 -2.160156 7.734375 -1.828125 C 7.734375 -1.535156 7.773438 -1.328125 7.859375 -1.203125 C 7.941406 -1.078125 8.078125 -1.015625 8.265625 -1.015625 L 8.78125 -1.046875 L 8.8125 -0.984375 L 8.65625 0.046875 L 8.265625 0.03125 C 7.617188 0.0078125 7.140625 0 6.828125 0 C 6.410156 0 5.785156 0.046875 4.953125 0.140625 L 5.03125 -0.921875 C 5.3125 -0.972656 5.515625 -1.070312 5.640625 -1.21875 C 5.765625 -1.363281 5.828125 -1.578125 5.828125 -1.859375 L 5.90625 -4.796875 C 5.914062 -5.773438 5.546875 -6.265625 4.796875 -6.265625 C 4.609375 -6.265625 4.363281 -6.195312 4.0625 -6.0625 C 3.757812 -5.9375 3.476562 -5.769531 3.21875 -5.5625 C 3.195312 -4.90625 3.1875 -3.648438 3.1875 -1.796875 C 3.1875 -1.515625 3.222656 -1.316406 3.296875 -1.203125 C 3.378906 -1.085938 3.515625 -1.03125 3.703125 -1.03125 L 4.140625 -1.046875 L 4.171875 -0.96875 L 4 0.046875 C 3.851562 0.046875 3.738281 0.0390625 3.65625 0.03125 C 3 0.0078125 2.503906 0 2.171875 0 C 1.515625 0 0.882812 0.015625 0.28125 0.046875 Z M 0.4375 -0.984375 "/></g></g></g><g fill="#ffffff" fill-opacity="1"><g transform="translate(91.573812, 18.544673)"><g><path d="M 0.796875 -6.984375 L 0.8125 -7.75 C 0.8125 -8.4375 0.789062 -9.082031 0.75 -9.6875 C 0.707031 -10.289062 0.679688 -10.675781 0.671875 -10.84375 L 2.359375 -11.09375 L 2.484375 -10.921875 C 2.453125 -10.703125 2.375 -10.222656 2.25 -9.484375 C 2.132812 -8.742188 2 -8 1.84375 -7.25 L 1.046875 -6.9375 Z M 0.796875 -6.984375 "/></g></g></g><g fill="#ffffff" fill-opacity="1"><g transform="translate(94.557562, 18.544673)"><g><path d="M 2.875 0.203125 C 2.46875 0.203125 2.097656 0.164062 1.765625 0.09375 C 1.429688 0.03125 1.164062 -0.0351562 0.96875 -0.109375 C 0.78125 -0.179688 0.664062 -0.226562 0.625 -0.25 L 0.53125 -0.421875 C 0.570312 -0.722656 0.613281 -1.078125 0.65625 -1.484375 C 0.695312 -1.898438 0.726562 -2.289062 0.75 -2.65625 L 1.671875 -2.75 C 1.691406 -1.601562 2.195312 -1.03125 3.1875 -1.03125 C 3.507812 -1.03125 3.78125 -1.097656 4 -1.234375 C 4.21875 -1.378906 4.328125 -1.5625 4.328125 -1.78125 C 4.328125 -2.007812 4.210938 -2.210938 3.984375 -2.390625 C 3.753906 -2.578125 3.300781 -2.835938 2.625 -3.171875 C 1.945312 -3.484375 1.453125 -3.816406 1.140625 -4.171875 C 0.835938 -4.535156 0.6875 -4.953125 0.6875 -5.421875 C 0.6875 -5.929688 0.832031 -6.378906 1.125 -6.765625 C 1.425781 -7.160156 1.84375 -7.46875 2.375 -7.6875 C 2.90625 -7.90625 3.507812 -8.015625 4.1875 -8.015625 C 4.507812 -8.015625 4.8125 -7.992188 5.09375 -7.953125 C 5.382812 -7.910156 5.609375 -7.863281 5.765625 -7.8125 C 5.929688 -7.757812 6.039062 -7.726562 6.09375 -7.71875 L 6.171875 -7.546875 C 6.148438 -7.421875 6.101562 -7.140625 6.03125 -6.703125 C 5.957031 -6.265625 5.894531 -5.816406 5.84375 -5.359375 L 4.90625 -5.296875 L 4.921875 -5.59375 C 4.921875 -5.988281 4.820312 -6.28125 4.625 -6.46875 C 4.4375 -6.65625 4.140625 -6.75 3.734375 -6.75 C 3.429688 -6.75 3.175781 -6.675781 2.96875 -6.53125 C 2.769531 -6.394531 2.671875 -6.21875 2.671875 -6 C 2.671875 -5.78125 2.757812 -5.582031 2.9375 -5.40625 C 3.125 -5.226562 3.425781 -5.035156 3.84375 -4.828125 C 4.507812 -4.515625 5.019531 -4.234375 5.375 -3.984375 C 5.738281 -3.734375 5.988281 -3.476562 6.125 -3.21875 C 6.269531 -2.96875 6.34375 -2.671875 6.34375 -2.328125 C 6.34375 -1.859375 6.1875 -1.429688 5.875 -1.046875 C 5.570312 -0.660156 5.15625 -0.351562 4.625 -0.125 C 4.09375 0.09375 3.507812 0.203125 2.875 0.203125 Z M 2.875 0.203125 "/></g></g></g><path stroke-linecap="butt" transform="matrix(1.049335, 0, 0, 1.049335, 65.990492, 7.209495)" fill="none" stroke-linejoin="miter" d="M 38.90646 10.074718 C 39.342003 10.000266 39.636088 9.873698 39.78127 9.691291 C 39.930174 9.512606 40.004625 9.192463 40.004625 8.734584 L 40.004625 2.64814 C 40.004625 2.309384 39.971122 2.082306 39.900393 1.963182 C 39.833386 1.847782 39.69565 1.788221 39.49463 1.788221 C 39.379229 1.788221 39.267552 1.791943 39.159596 1.803111 C 39.055364 1.814279 38.984634 1.818001 38.954854 1.818001 L 38.858066 1.691433 L 38.984634 0.749616 L 40.994836 0.764507 C 41.396876 0.764507 41.84731 0.757062 42.338693 0.742171 C 42.833798 0.727281 43.183722 0.71239 43.384742 0.701223 C 44.747212 0.701223 45.722532 0.987862 46.318147 1.561142 C 46.913762 2.134422 47.21157 2.864051 47.21157 3.746306 C 47.21157 4.375424 47.032886 4.967317 46.675516 5.525706 C 46.318147 6.084096 45.8491 6.527084 45.264653 6.862118 C 44.683928 7.197152 44.062254 7.364668 43.403355 7.364668 L 42.063221 7.364668 L 42.03344 8.574512 C 42.03344 8.991443 42.052053 9.292973 42.085556 9.486548 C 42.122782 9.6764 42.193512 9.810414 42.294022 9.87742 C 42.394532 9.94815 42.554603 9.981653 42.777959 9.981653 C 42.926863 9.981653 43.068321 9.974208 43.206057 9.96304 C 43.347516 9.955595 43.444304 9.94815 43.49642 9.94815 L 43.544814 10.026324 L 43.403355 11.046315 C 43.250729 11.046315 42.975257 11.03887 42.576939 11.02398 C 42.178621 11.009089 41.795194 11.001644 41.426657 11.001644 C 41.065565 11.001644 40.581628 11.016534 39.98229 11.046315 C 39.382952 11.079819 38.980912 11.105877 38.779892 11.128212 Z M 43.51131 6.169715 C 44.497798 5.957527 44.992903 5.231621 44.992903 3.988274 C 44.992903 3.307039 44.803051 2.811934 44.415901 2.495514 C 44.036196 2.182816 43.433136 2.026467 42.602997 2.026467 C 42.457816 2.026467 42.364751 2.037634 42.323802 2.063693 C 42.286576 2.089751 42.264241 2.167925 42.253073 2.298216 C 42.189789 3.254923 42.137673 4.475934 42.093001 5.964973 Z M 48.004483 10.093331 C 48.324626 10.070995 48.540537 9.985376 48.652215 9.836472 C 48.763892 9.687568 48.819731 9.408373 48.819731 8.991443 L 48.819731 5.819791 C 48.819731 5.4587 48.771338 5.213008 48.67455 5.082717 C 48.577763 4.944981 48.399078 4.877975 48.134774 4.877975 L 47.829521 4.892865 L 47.751346 4.78491 L 47.844411 3.988274 C 48.410246 3.891487 48.983526 3.783532 49.575418 3.668131 C 50.163588 3.552731 50.547016 3.474556 50.718255 3.441053 L 50.859714 3.586234 C 50.837378 3.683022 50.807597 3.884042 50.774094 4.193017 C 50.736868 4.501993 50.71081 4.7998 50.699642 5.08644 L 50.796429 5.149724 C 51.124018 4.650896 51.488832 4.263746 51.88715 3.988274 C 52.285468 3.70908 52.665172 3.571344 53.026264 3.571344 C 53.175168 3.571344 53.298014 3.575066 53.394801 3.586234 C 53.491589 3.597402 53.554873 3.60857 53.584653 3.619737 L 53.647938 3.746306 C 53.618157 3.928713 53.562318 4.319585 53.487866 4.922646 C 53.417137 5.521984 53.361298 6.091541 53.327794 6.63504 L 52.307803 6.694601 C 52.307803 6.184606 52.278022 5.845849 52.218461 5.685778 C 52.162622 5.518261 52.043499 5.436364 51.861092 5.436364 C 51.693575 5.436364 51.51489 5.499648 51.321315 5.629939 C 51.12774 5.756507 50.949056 5.931469 50.781539 6.154825 C 50.770371 6.452633 50.744313 6.940293 50.707087 7.614082 C 50.669861 8.287872 50.647526 8.827648 50.636358 9.229689 C 50.636358 9.505161 50.681029 9.698736 50.774094 9.806691 C 50.863436 9.910924 51.02723 9.96304 51.258031 9.96304 C 51.418103 9.96304 51.574452 9.959317 51.734524 9.94815 C 51.894595 9.940704 52.00255 9.925814 52.058389 9.914646 L 52.10306 10.011434 L 51.928098 11.061206 C 51.779195 11.050038 51.503723 11.03887 51.101682 11.02398 C 50.707087 11.009089 50.293879 11.001644 49.869503 11.001644 C 49.467463 11.001644 49.065423 11.009089 48.65966 11.02398 C 48.257619 11.03887 47.997038 11.050038 47.877915 11.061206 Z M 57.727902 11.191496 C 57.057835 11.191496 56.469665 11.03887 55.955947 10.741062 C 55.449674 10.43581 55.055079 10.007711 54.775884 9.456767 C 54.504134 8.9021 54.366398 8.265536 54.366398 7.53963 C 54.366398 6.742995 54.52647 6.039424 54.850336 5.425196 C 55.174202 4.807245 55.628358 4.323308 56.205361 3.980829 C 56.786085 3.634628 57.45243 3.463388 58.204394 3.463388 C 59.239276 3.463388 60.054524 3.787254 60.653862 4.442431 C 61.2532 5.093885 61.55473 5.97614 61.55473 7.092919 C 61.55473 7.893277 61.394659 8.604293 61.074515 9.225966 C 60.758095 9.843917 60.307661 10.327854 59.726936 10.674056 C 59.149934 11.016534 58.483589 11.191496 57.727902 11.191496 Z M 58.048045 9.996543 C 58.502202 9.996543 58.852126 9.814136 59.090372 9.445599 C 59.332341 9.077062 59.451464 8.541009 59.451464 7.829993 C 59.451464 6.828615 59.313728 6.07665 59.034533 5.566655 C 58.759061 5.056659 58.360743 4.7998 57.83958 4.7998 C 57.385423 4.7998 57.035499 4.982207 56.797253 5.350744 C 56.559007 5.715559 56.439884 6.255335 56.439884 6.970073 C 56.439884 7.967729 56.57762 8.723416 56.853092 9.233411 C 57.128564 9.743407 57.526882 9.996543 58.048045 9.996543 Z M 64.29456 1.836614 C 63.952082 1.836614 63.684055 1.732382 63.486757 1.531361 C 63.293182 1.330341 63.196395 1.054869 63.196395 0.701223 C 63.196395 0.332686 63.311795 0.0274329 63.546319 -0.210813 C 63.780842 -0.452782 64.082372 -0.571905 64.454632 -0.571905 C 64.78222 -0.571905 65.046525 -0.471395 65.243822 -0.26293 C 65.44112 -0.0544642 65.537907 0.217285 65.537907 0.559764 C 65.537907 0.928301 65.426229 1.237276 65.195428 1.475522 C 64.96835 1.717491 64.66682 1.836614 64.29456 1.836614 Z M 62.191294 14.411541 L 62.224797 14.232857 C 62.678954 13.786145 62.991652 13.298485 63.151724 12.766154 C 63.31924 12.237546 63.401137 11.459523 63.401137 10.428364 L 63.401137 5.737894 C 63.401137 5.399138 63.360189 5.164615 63.274569 5.038046 C 63.18895 4.911478 63.032601 4.848194 62.809245 4.848194 C 62.705012 4.848194 62.608225 4.851917 62.522605 4.863084 C 62.440708 4.874252 62.381146 4.88542 62.351366 4.892865 L 62.44443 3.988274 C 62.976762 3.913822 63.561209 3.817035 64.201495 3.697912 C 64.838059 3.582511 65.251267 3.504337 65.44112 3.463388 L 65.571411 3.716525 C 65.348055 4.170682 65.236377 6.672266 65.236377 11.221277 C 65.236377 11.965796 65.009299 12.661922 64.558865 13.313376 C 64.108431 13.961107 63.483035 14.485993 62.686399 14.888034 Z M 70.448011 11.191496 C 69.331232 11.191496 68.452699 10.863908 67.80869 10.208731 C 67.164681 9.557277 66.840816 8.660132 66.840816 7.52474 C 66.840816 6.757885 67.008332 6.069205 67.335921 5.454977 C 67.667232 4.837026 68.117666 4.349366 68.690946 3.99572 C 69.267948 3.63835 69.904512 3.463388 70.60436 3.463388 C 72.391205 3.463388 73.284628 4.364257 73.284628 6.169715 C 73.284628 6.489858 73.247402 6.787666 73.17295 7.063138 L 72.979375 7.252991 L 68.85474 7.252991 C 68.865907 8.02729 69.048315 8.619183 69.401961 9.032391 C 69.75933 9.441877 70.254436 9.646619 70.894722 9.646619 C 71.445666 9.646619 72.078507 9.486548 72.789523 9.166405 L 72.901201 9.229689 L 73.15806 10.011434 C 72.763465 10.309241 72.309308 10.580991 71.791867 10.826682 C 71.278149 11.068651 70.831438 11.191496 70.448011 11.191496 Z M 71.036181 6.24789 C 71.166471 6.236722 71.248369 6.210664 71.281872 6.169715 C 71.32282 6.128767 71.341433 6.031979 71.341433 5.883075 C 71.341433 5.097608 71.0064 4.703013 70.336333 4.703013 C 69.923125 4.703013 69.584368 4.848194 69.320064 5.134834 C 69.063205 5.421474 68.906856 5.834682 68.85474 6.378181 Z M 77.714517 11.191496 C 76.631241 11.191496 75.775045 10.863908 75.145926 10.208731 C 74.52053 9.557277 74.204109 8.660132 74.204109 7.52474 C 74.204109 6.739272 74.371626 6.039424 74.699214 5.425196 C 75.030525 4.807245 75.488405 4.323308 76.076575 3.980829 C 76.668467 3.634628 77.338535 3.463388 78.083054 3.463388 C 78.432978 3.463388 78.756843 3.485724 79.058374 3.530395 C 79.363626 3.578789 79.601873 3.627183 79.776835 3.675576 C 79.955519 3.72397 80.063474 3.757473 80.104423 3.779809 L 80.167707 3.921268 C 80.156539 3.984552 80.126759 4.133456 80.078365 4.360534 C 80.029971 4.587612 79.981577 4.88542 79.925738 5.246512 C 79.873622 5.607603 79.836396 5.983586 79.817783 6.378181 L 78.797792 6.441465 L 78.797792 5.912856 C 78.797792 5.551764 78.70845 5.276292 78.533488 5.082717 C 78.358526 4.88542 78.112834 4.78491 77.792691 4.78491 C 77.293863 4.78491 76.914159 4.967317 76.653577 5.332131 C 76.392995 5.700668 76.262705 6.221832 76.262705 6.903067 C 76.262705 7.774154 76.419054 8.444221 76.724306 8.913268 C 77.033282 9.382315 77.468825 9.613116 78.03466 9.613116 C 78.298964 9.613116 78.555823 9.579613 78.805237 9.508883 C 79.054651 9.438154 79.259394 9.367425 79.423188 9.296695 C 79.590705 9.218521 79.694937 9.17385 79.739609 9.151514 L 79.847564 9.199908 L 80.104423 10.011434 C 80.029971 10.074718 79.858732 10.201286 79.594427 10.387416 C 79.330123 10.573546 79.021148 10.75223 78.671224 10.930915 C 78.317577 11.102154 78.001157 11.191496 77.714517 11.191496 Z M 83.946141 11.191496 C 83.190455 11.191496 82.63951 11.035147 82.289586 10.718727 C 81.939663 10.406029 81.764701 9.907201 81.764701 9.229689 L 81.764701 5.67461 C 81.764701 5.335854 81.705139 5.112498 81.589739 5.00082 C 81.470615 4.889142 81.243537 4.825858 80.901058 4.814691 L 80.740987 4.703013 L 80.852665 3.921268 C 81.258428 3.731415 81.656745 3.511782 82.047618 3.262368 C 82.442213 3.012954 82.769801 2.789599 83.02666 2.603469 C 83.290965 2.409894 83.451036 2.287048 83.51432 2.231209 L 83.961032 2.458288 C 83.953587 2.521572 83.927528 2.674198 83.890302 2.91989 C 83.853077 3.165581 83.819573 3.467111 83.78607 3.828203 L 85.66598 3.779809 L 85.732987 3.857984 L 85.572916 4.926368 L 83.689282 4.877975 C 83.625998 5.801178 83.596217 6.958906 83.596217 8.354879 C 83.596217 8.809035 83.674392 9.140346 83.834464 9.341367 C 83.994535 9.546109 84.255117 9.646619 84.616209 9.646619 C 84.809784 9.646619 85.003359 9.613116 85.196933 9.553554 C 85.394231 9.486548 85.520799 9.441877 85.572916 9.419541 L 85.781381 9.933259 C 85.714374 9.996543 85.561748 10.126834 85.323502 10.331577 C 85.085256 10.532597 84.832119 10.726172 84.556647 10.916024 C 84.28862 11.098432 84.083877 11.191496 83.946141 11.191496 Z M 83.946141 11.191496 " stroke="#ffffff" stroke-width="0.458425" stroke-opacity="1" stroke-miterlimit="4"/></svg>